<?xml version="1.0" encoding="utf-8"?>
<!-- Generator: Adobe Illustrator 25.1.0, SVG Export Plug-In . SVG Version: 6.00 Build 0)  -->
<svg version="1.1" id="Layer_1" xmlns="http://www.w3.org/2000/svg" xmlns:xlink="http://www.w3.org/1999/xlink" x="0px" y="0px"
	 viewBox="0 0 1000 1000" style="enable-background:new 0 0 1000 1000;" xml:space="preserve">
<style type="text/css">
	.st0{fill:#E31019;}
	.st1{font-family:'Montserrat-SemiBold';}
	.st2{font-size:139.8555px;}
	.st3{letter-spacing:10;}
	.st4{fill:#282828;}
	.st5{font-size:70px;}
	.st6{letter-spacing:5;}
</style>
<g>
	<g>
		<text transform="matrix(1 0 0 1 106.3105 760.6909)"><tspan x="0" y="0" class="st0 st1 st2 st3">YOUTUBE</tspan><tspan x="84.09" y="84" class="st4 st1 st5 st6">DOWNLOADER</tspan></text>
	</g>
	<g>
		<path class="st4" d="M653.51,289.72c5.68-8.99,10.87-17.81,15.52-26.41c29.35-54.25,34.08-93.7,13.68-114.1
			c-20.4-20.4-59.85-15.67-114.1,13.68c-8.92,4.83-18.09,10.24-27.43,16.17c-20.14-7.34-41.87-11.34-64.52-11.34
			c-104.32,0-189.18,84.87-189.18,189.18c0,23.38,4.27,45.79,12.06,66.48c-4.22,6.88-8.13,13.66-11.73,20.31
			c-29.36,54.25-34.09,93.7-13.69,114.1c8.32,8.32,19.8,12.46,34.16,12.46c20.86,0,47.81-8.75,79.95-26.14
			c6.32-3.42,12.76-7.12,19.29-11.11c21.42,8.44,44.75,13.08,69.14,13.08c104.31,0,189.17-84.87,189.17-189.18
			C665.83,333.25,661.47,310.61,653.51,289.72z M476.66,518.88c-13.78,0-27.16-1.73-39.94-4.98c-5.64-1.44-11.16-3.17-16.54-5.18
			c-5.09-1.9-10.06-4.05-14.9-6.43c-32.87-16.2-59.49-43.23-75.16-76.4c-2.33-4.92-4.41-9.97-6.24-15.15
			c-1.94-5.49-3.59-11.11-4.94-16.85c-2.79-11.89-4.26-24.27-4.26-36.99c0-89.31,72.66-161.98,161.98-161.98
			c12.16,0,24.02,1.35,35.42,3.9c5.73,1.29,11.35,2.87,16.84,4.76c5.18,1.76,10.24,3.79,15.17,6.06
			c34.4,15.81,62.35,43.34,78.7,77.44c2.33,4.85,4.42,9.82,6.26,14.92c1.95,5.38,3.62,10.9,4.99,16.53
			c3,12.31,4.59,25.16,4.59,38.37C638.63,446.22,565.97,518.88,476.66,518.88z M375.28,520.19c-48.04,25.99-74.15,26.14-81.92,18.37
			c-4.39-4.39-5.63-13.59-3.49-25.92c2.61-15.04,10.17-34.41,21.86-56c0.66-1.22,1.33-2.44,2.01-3.67
			c15.85,26.78,38.1,49.33,64.64,65.53C377.34,519.07,376.31,519.63,375.28,520.19z M581.55,186.81
			c31.18-16.86,53.12-22.85,66.8-22.85c7.41,0,12.4,1.75,15.13,4.48c4.39,4.39,5.62,13.59,3.48,25.92
			c-2.61,15.04-10.17,34.41-21.85,56.01c-1.82,3.36-3.72,6.75-5.7,10.18c-16.66-28.03-40.34-51.41-68.61-67.7
			C574.42,190.74,578.01,188.73,581.55,186.81z"/>
		<path class="st0" d="M551.16,335.79l-88.34-61.83l-0.4-0.28c-4.31-3.02-9.3-4.59-14.34-4.67c-4.2-0.07-8.44,0.9-12.33,2.92
			c-8.35,4.34-13.61,12.79-13.85,22.16c-0.02,0.23-0.02,0.46-0.02,0.69v124.24c0,9.64,5.32,18.4,13.87,22.85
			c3.76,1.96,7.84,2.93,11.91,2.93c5.18,0,10.34-1.57,14.76-4.67l84.74-59.32l4-2.8c4.14-2.9,7.28-6.92,9.13-11.49
			c1.21-3.02,1.86-6.28,1.86-9.62C562.15,348.5,558.04,340.61,551.16,335.79z M449.08,416.26V297.54l84.81,59.36L449.08,416.26z"/>
		<path class="st0" d="M707,475.67h-17c0,17.94-14.6,32.54-32.54,32.54v17c17.94,0,32.54,14.6,32.54,32.54h17
			c0-17.94,14.6-32.54,32.54-32.54v-17C721.6,508.2,707,493.61,707,475.67z M698.5,530.02c-3.56-5.25-8.11-9.77-13.36-13.32
			c5.25-3.55,9.8-8.07,13.36-13.32c3.56,5.25,8.11,9.77,13.36,13.32C706.61,520.26,702.06,524.77,698.5,530.02z"/>
		<path class="st0" d="M307.67,205.6v-17c-17.94,0-32.54-14.6-32.54-32.54h-17c0,17.94-14.6,32.54-32.54,32.54v17
			c17.94,0,32.54,14.6,32.54,32.54h17C275.13,220.2,289.73,205.6,307.67,205.6z M266.63,210.42c-3.56-5.25-8.11-9.77-13.36-13.32
			c5.25-3.55,9.8-8.07,13.36-13.32c3.56,5.25,8.11,9.77,13.36,13.32C274.74,200.66,270.19,205.18,266.63,210.42z"/>
		<path class="st4" d="M215.26,288.95c-14.39,0-26.1,11.71-26.1,26.11c0,14.39,11.71,26.1,26.1,26.1c14.4,0,26.11-11.71,26.11-26.1
			C241.37,300.66,229.66,288.95,215.26,288.95z M215.26,324.16c-5.02,0-9.1-4.08-9.1-9.1c0-5.02,4.08-9.11,9.1-9.11
			s9.11,4.09,9.11,9.11C224.37,320.08,220.28,324.16,215.26,324.16z"/>
		<path class="st4" d="M742.26,387.5c-14.39,0-26.1,11.71-26.1,26.1c0,14.4,11.71,26.11,26.1,26.11c14.4,0,26.11-11.71,26.11-26.11
			C768.37,399.21,756.66,387.5,742.26,387.5z M742.26,422.71c-5.02,0-9.1-4.09-9.1-9.11c0-5.02,4.08-9.1,9.1-9.1s9.11,4.08,9.11,9.1
			C751.37,418.62,747.28,422.71,742.26,422.71z"/>
	</g>
</g>
</svg>
