<svg xmlns="http://www.w3.org/2000/svg" xmlns:xlink="http://www.w3.org/1999/xlink" id="Layer_1" x="0" y="0" version="1.1" viewBox="0 0 1000 1000" xml:space="preserve" style="enable-background:new 0 0 1000 1000"><style type="text/css">.st0{fill:#282828}.st1{fill:#e31019}</style><g><g><path d="M674.75,436.22c5.68-8.99,10.87-17.81,15.52-26.41c29.35-54.25,34.08-93.7,13.68-114.1 c-20.4-20.4-59.85-15.67-114.1,13.68c-8.92,4.83-18.09,10.24-27.43,16.17c-20.14-7.34-41.87-11.34-64.52-11.34 c-104.32,0-189.18,84.87-189.18,189.18c0,23.38,4.27,45.79,12.06,66.48c-4.22,6.88-8.13,13.66-11.73,20.31 c-29.36,54.25-34.09,93.7-13.69,114.1c8.32,8.32,19.8,12.46,34.16,12.46c20.86,0,47.81-8.75,79.95-26.14 c6.32-3.42,12.76-7.12,19.29-11.11c21.42,8.44,44.75,13.08,69.14,13.08c104.31,0,189.17-84.87,189.17-189.18 C687.07,479.75,682.71,457.11,674.75,436.22z M497.89,665.38c-13.78,0-27.16-1.73-39.94-4.98c-5.64-1.44-11.16-3.17-16.54-5.18 c-5.09-1.9-10.06-4.05-14.9-6.43c-32.87-16.2-59.49-43.23-75.16-76.4c-2.33-4.92-4.41-9.97-6.24-15.15 c-1.94-5.49-3.59-11.11-4.94-16.85c-2.79-11.89-4.26-24.27-4.26-36.99c0-89.31,72.66-161.98,161.98-161.98 c12.16,0,24.02,1.35,35.42,3.9c5.73,1.29,11.35,2.87,16.84,4.76c5.18,1.76,10.24,3.79,15.17,6.06 c34.4,15.81,62.35,43.34,78.7,77.44c2.33,4.85,4.42,9.82,6.26,14.92c1.95,5.38,3.62,10.9,4.99,16.53 c3,12.31,4.59,25.16,4.59,38.37C659.86,592.72,587.21,665.38,497.89,665.38z M396.52,666.69c-48.04,25.99-74.15,26.14-81.92,18.37 c-4.39-4.39-5.63-13.59-3.49-25.92c2.61-15.04,10.17-34.41,21.86-56c0.66-1.22,1.33-2.44,2.01-3.67 c15.85,26.78,38.1,49.33,64.64,65.53C398.58,665.57,397.55,666.13,396.52,666.69z M602.79,333.31 c31.18-16.86,53.12-22.85,66.8-22.85c7.41,0,12.4,1.75,15.13,4.48c4.39,4.39,5.62,13.59,3.48,25.92 c-2.61,15.04-10.17,34.41-21.85,56.01c-1.82,3.36-3.72,6.75-5.7,10.18c-16.66-28.03-40.34-51.41-68.61-67.7 C595.65,337.24,599.25,335.23,602.79,333.31z" class="st0"/><path d="M572.39,482.29l-88.34-61.83l-0.4-0.28c-4.31-3.02-9.3-4.59-14.34-4.67c-4.2-0.07-8.44,0.9-12.33,2.92 c-8.35,4.34-13.61,12.79-13.85,22.16c-0.02,0.23-0.02,0.46-0.02,0.69v124.24c0,9.64,5.32,18.4,13.87,22.85 c3.76,1.96,7.84,2.93,11.91,2.93c5.18,0,10.34-1.57,14.76-4.67l84.74-59.32l4-2.8c4.14-2.9,7.28-6.92,9.13-11.49 c1.21-3.02,1.86-6.28,1.86-9.62C583.39,495,579.28,487.11,572.39,482.29z M470.32,562.76V444.04l84.81,59.36L470.32,562.76z" class="st1"/><path d="M728.23,622.16h-17c0,17.94-14.6,32.54-32.54,32.54v17c17.94,0,32.54,14.6,32.54,32.54h17 c0-17.94,14.6-32.54,32.54-32.54v-17C742.83,654.7,728.23,640.1,728.23,622.16z M719.73,676.52c-3.56-5.25-8.11-9.77-13.36-13.32 c5.25-3.55,9.8-8.07,13.36-13.32c3.56,5.25,8.11,9.77,13.36,13.32C727.84,666.75,723.29,671.27,719.73,676.52z" class="st1"/><path d="M328.9,352.1v-17c-17.94,0-32.54-14.6-32.54-32.54h-17c0,17.94-14.6,32.54-32.54,32.54v17 c17.94,0,32.54,14.6,32.54,32.54h17C296.36,366.7,310.96,352.1,328.9,352.1z M287.86,356.92c-3.56-5.25-8.11-9.77-13.36-13.32 c5.25-3.55,9.8-8.07,13.36-13.32c3.56,5.25,8.11,9.77,13.36,13.32C295.97,347.15,291.42,351.67,287.86,356.92z" class="st1"/><path d="M236.5,435.45c-14.39,0-26.1,11.71-26.1,26.11c0,14.39,11.71,26.1,26.1,26.1c14.4,0,26.11-11.71,26.11-26.1 C262.61,447.16,250.89,435.45,236.5,435.45z M236.5,470.66c-5.02,0-9.1-4.08-9.1-9.1c0-5.02,4.08-9.11,9.1-9.11 s9.11,4.09,9.11,9.11C245.61,466.58,241.52,470.66,236.5,470.66z" class="st0"/><path d="M763.5,534c-14.39,0-26.1,11.71-26.1,26.1c0,14.4,11.71,26.11,26.1,26.11c14.4,0,26.11-11.71,26.11-26.11 C789.6,545.71,777.89,534,763.5,534z M763.5,569.21c-5.02,0-9.1-4.09-9.1-9.11c0-5.02,4.08-9.1,9.1-9.1s9.11,4.08,9.11,9.1 C772.6,565.12,768.52,569.21,763.5,569.21z" class="st0"/></g></g></svg>